<?xml version="1.0" encoding="UTF-8"?>
<svg id="Layer_2" data-name="Layer 2" xmlns="http://www.w3.org/2000/svg" viewBox="0 0 1500 1500">
  <defs>
    <style>
      .cls-1 {
        fill: none;
      }

      .cls-2 {
        fill: #fff;
      }

      .cls-3 {
        fill: #fae44d;
      }

      .cls-4 {
        fill: #822e35;
      }

      .cls-5 {
        fill: #cbcbcb;
      }

      .cls-6 {
        fill: #565656;
      }
    </style>
  </defs>
  <g id="Layer_1-2" data-name="Layer 1">
    <g>
      <rect class="cls-1" x="0" width="1500" height="1500"/>
      <g id="Laag_2" data-name="Laag 2">
        <g id="Laag_1-2" data-name="Laag 1-2">
          <circle class="cls-4" cx="750.19" cy="718.53" r="445.7"/>
          <circle class="cls-6" cx="750.15" cy="718.42" r="436.11"/>
          <circle class="cls-2" cx="750.27" cy="718.61" r="326.43"/>
          <circle class="cls-4" cx="750.24" cy="718.53" r="319.4"/>
          <path class="cls-2" d="M395.79,639.95l-3.11,14.45-42.52-9.14,3.07-14.29c2.68-12.46,9.68-16.36,24.82-13.11,15.66,3.36,20.25,10.4,17.74,22.08Zm-34.32-7.26l-1.17,5.44,26.13,5.62,1.17-5.44c1.27-5.9-.16-8.64-11.6-11.1-10.61-2.28-13.23-.58-14.54,5.48Z"/>
          <path class="cls-2" d="M401.38,589.33l7.78,2.71-8.09,25.54-41.46-13.15,7.85-24.77,8.01,2.36-5.15,16.25,8.53,2.72,4.3-13.66,7.3,2.31-4.3,13.65,9.84,3.12,5.39-17.08Z"/>
          <path class="cls-2" d="M418.82,548.28l7.6,3.73-10.37,22.68-39.55-18.1,3.81-8.33,31.85,14.57,6.66-14.56Z"/>
          <path class="cls-2" d="M434.43,520.81l7.06,4.24-13.16,23.34-37.88-21.36,12.76-22.63,7.36,3.95-8.37,14.85,7.78,4.39,7.04-12.48,6.67,3.76-7.03,12.48,8.99,5.07,8.79-15.61Z"/>
          <path class="cls-2" d="M456.99,502.32l-20.79-2.62-2.22,3.19,15.23,10.61-5.21,7.47-35.68-24.87,5.21-7.47,14.29,9.94,2.35-3.38-8.9-17.65,5.9-8.47,10.39,21.3,25.66,3.04-6.22,8.9Z"/>
          <path class="cls-2" d="M480.22,473.61l-20.42-4.72-2.53,2.95,14.06,12.1-5.94,6.9-32.95-28.37,5.94-6.9,13.19,11.35,2.68-3.12-7.06-18.47,6.73-7.82,8.16,22.25,25.22,5.64-7.09,8.22Z"/>
          <path class="cls-2" d="M503.67,438.4l5.54,6.1-19.33,18.56-30.14-31.36,18.76-17.99,5.91,5.9-12.29,11.82,6.19,6.44,10.31-9.93,5.31,5.53-10.31,9.93,7.15,7.44,12.9-12.44Z"/>
          <path class="cls-2" d="M519.13,412.77l18.64,8.65-8.24,6.58-15.74-8.65-4.17,3.33,10.34,12.95-7.1,5.7-27.14-33.98,11.17-8.9c7.93-6.33,14.28-6.28,20.14,1.06,3.84,4.85,4.55,9.55,2.11,13.28Zm-17.27-8.24l-4.12,3.29,7.39,9.24,4.03-3.22c3.13-2.5,3.67-4.42,.67-8.16-2.83-3.56-4.85-3.65-7.97-1.15Z"/>
          <path class="cls-2" d="M549.65,414.58c-3.77,2.5-7.95,3.95-11.85,4.17l-3.4-7.34c3.8-.36,7.35-1.4,10.59-3.54,3.63-2.41,4.3-4.86,2.53-7.52-3.94-5.94-17.64,6.13-25.49-5.71-4.07-6.14-3.48-13.35,4.88-18.9,3.29-2.18,7.04-3.76,10.31-4.27l3.49,7.15c-3.09,.77-6.03,2.04-8.71,3.75-4.11,2.72-4.24,5.04-2.9,7.07,3.84,5.8,17.52-6.32,25.39,5.58,4.72,7.1,3,14.4-4.83,19.56Z"/>
          <path class="cls-2" d="M562.43,365.28l16.9,30.61-8.06,4.46-16.9-30.61-9.24,5.1-3.93-7.57,26.2-14.47,4.27,7.38-9.25,5.1Z"/>
          <path class="cls-2" d="M613.15,370.79l3.14,7.62-24.48,10.89-17.68-39.73,23.73-10.56,3.55,7.56-15.57,6.93,3.63,8.16,13.08-5.82,3.11,6.99-13.09,5.82,4.21,9.42,16.37-7.28Z"/>
          <path class="cls-2" d="M639.57,333.73l10.15,33.46-8.82,2.68-10.14-33.46-10.09,3.07-2.26-8.22,28.63-8.68,2.64,8.11-10.11,3.06Z"/>
          <path class="cls-2" d="M691.06,342.52c2.07,10.23-2.19,16.3-12.54,18.4-10.34,2.1-16.75-1.81-18.83-12.03l-5.71-28.13,8.98-1.82,5.69,28.02c.99,4.89,3.41,6.58,8.16,5.62,4.75-.97,6.29-3.41,5.29-8.35l-5.67-28.01,8.92-1.81,5.71,28.11Z"/>
          <path class="cls-2" d="M720.7,335.65l10.94,17.38-10.5,1.05-8.52-15.81-5.31,.53,1.65,16.5-9.06,.91-4.33-43.27,14.17-1.42c10.1-1.01,15.4,2.48,16.32,11.82,.65,6.19-1.31,10.49-5.38,12.31Zm-10.03-16.32l-5.25,.52,1.18,11.77,5.15-.52c3.98-.4,5.48-1.72,5-6.5-.47-4.48-2.1-5.66-6.09-5.26v-.02Z"/>
          <path class="cls-2" d="M757.5,353l-9.74-18.56h-3.87v18.56h-9.11v-43.49h9.11v17.4h4.11l9.4-17.39h10.31l-11.54,20.7,12.17,22.79h-10.85Z"/>
          <path class="cls-2" d="M782.17,355.19c-4.5-.43-8.67-1.91-11.84-4.18l1.95-7.86c3.18,2.1,6.6,3.52,10.47,3.87,4.33,.4,6.39-1.1,6.68-4.27,.66-7.1-17.59-6.28-16.28-20.43,.68-7.33,5.64-12.58,15.63-11.66,3.93,.36,7.84,1.48,10.74,3.14l-1.77,7.76c-2.89-1.34-5.98-2.19-9.14-2.53-4.91-.46-6.46,1.29-6.69,3.69-.64,6.93,17.61,6.05,16.3,20.26-.82,8.5-6.72,13.08-16.06,12.22Z"/>
          <path class="cls-2" d="M829.53,353.27l-1.77,8.05-26.32-5.01,8.13-42.72,25.52,4.86-1.38,8.23-16.75-3.19-1.67,8.77,14.07,2.68-1.43,7.52-14.07-2.68-1.93,10.14,17.6,3.35Z"/>
          <path class="cls-2" d="M855.65,369.43c-4.33-1.32-8.11-3.63-10.74-6.5l3.5-7.3c2.69,2.71,5.75,4.79,9.45,5.93,4.16,1.29,6.48,.22,7.41-2.83,2.09-6.82-15.94-9.73-11.79-23.31,2.15-7.04,8.09-11.17,17.68-8.23,3.77,1.16,7.37,3.05,9.85,5.26l-3.31,7.24c-2.56-1.9-5.41-3.36-8.44-4.34-4.72-1.44-6.58-.07-7.3,2.26-2.04,6.65,16.01,9.51,11.84,23.15-2.48,8.16-9.18,11.44-18.17,8.69Z"/>
          <path class="cls-2" d="M892.82,366.3l-4.67-1.9-5.5,13.54-8.44-3.44,16.36-40.29,13.11,5.32c10.31,4.19,12.89,10,9.05,19.5-3.49,8.6-9.42,11.51-19.9,7.26Zm7.84-19.47l-4.62-1.88-5.06,12.46,4.67,1.9c4.08,1.66,6.29,1.29,8.38-3.87,1.98-4.87,.98-6.85-3.38-8.61Z"/>
          <path class="cls-2" d="M933.73,392.9l-3.99,7.21-23.8-12.31,19.98-38.63,23.07,11.94-3.68,7.51-15.14-7.83-4.11,7.91,12.72,6.58-3.52,6.8-12.71-6.59-4.72,9.17,15.9,8.24Z"/>
          <path class="cls-2" d="M972.88,386.47c-1.57-2.04-3.49-3.78-5.67-5.15-5.99-3.77-9.63-2.44-15.32,6.6-6.06,9.62-5.64,13.65,.39,17.44,2.18,1.38,4.64,2.28,7.2,2.61l-3.32,7.04c-3.34-.44-6.54-1.59-9.39-3.38-10.26-6.44-11.41-15.4-2.98-28.8,7.94-12.61,16.64-15.77,27.39-9.02,2.6,1.64,5.44,4.3,6.78,6.32l-5.09,6.34Z"/>
          <path class="cls-2" d="M985.1,384.17l7.54,5.5-25.57,35.18-7.55-5.49,25.58-35.19Z"/>
          <path class="cls-2" d="M995.64,436.94l-10.6-9.02-7.19,5.15-7.34-6.23,38.33-24.48,8.48,7.21-17.88,41.88-7.73-6.57,3.93-7.94Zm8.81-22.79l-12.72,9.05,7.56,6.41,6.87-14.01,2.25-4.17-.13-.12-3.83,2.83Z"/>
          <path class="cls-2" d="M1025.16,465.92l-6.22,5.75-17.44-17.82,31.08-30.41,6.41,6.55-25.03,24.48,11.2,11.45Z"/>
          <path class="cls-2" d="M1054.95,447.05l6.09,7.08-32.96,28.35-6.09-7.08,32.97-28.35Z"/>
          <path class="cls-2" d="M1070.88,480.45l-27.95,21-5.54-7.37,27.96-21-6.34-8.44,6.95-4.94,17.97,23.92-6.71,5.26-6.34-8.44Z"/>
          <path class="cls-2" d="M1072.5,531.41l-7.1,4.17-14.2-22.71,36.87-23.06,13.77,22.03-6.97,4.59-9.02-14.45-7.57,4.72,7.57,12.15-6.49,4.06-7.59-12.14-8.75,5.47,9.48,15.18Z"/>
          <path class="cls-2" d="M1106.25,520.06l4.41,8.23-38.34,20.52-4.41-8.23,38.34-20.52Z"/>
          <path class="cls-2" d="M1114.55,556.12l-31.85,14.42-3.8-8.4,31.87-14.41-4.35-9.61,7.86-3.3,12.34,27.25-7.69,3.67-4.37-9.61Z"/>
          <path class="cls-2" d="M1105.02,606.25l-7.84,2.52-8.91-25.26,41.02-14.47,8.64,24.48-7.81,2.94-5.67-16.08-8.42,2.97,4.76,13.5-7.22,2.55-4.77-13.5-9.73,3.44,5.96,16.91Z"/>
          <path class="cls-2" d="M1104.74,638.03l19.29-20.11,3.35-3.34-.08-.1-4.55,1.18-22.18,5.48-1.93-7.83,42.22-10.43,1.88,7.6-21.75,21.98,.08,.1,4.48-1.23,21.05-5.2,1.92,7.77-42.22,10.42-1.55-6.3Z"/>
          <path class="cls-4" d="M358.17,718.56c-21.99-.34-41.23-12.37-46.5-29.21h94.97c-5.45,17.39-25.77,29.56-48.47,29.21Z"/>
          <path class="cls-4" d="M1144.07,718.56c-21.99-.34-41.23-12.37-46.5-29.21h94.96c-5.46,17.39-25.77,29.56-48.47,29.21Z"/>
          <path class="cls-3" d="M705.63,563.07c-25.63,37.27-51.26,74.53-76.88,111.8,10.02-3.9,20.78-5.54,31.51-4.8,2.26,.16,9.82,1.03,19.26,4.1,15.61,5.09,29.09,15.21,40.44,30.33,11.35,15.13,17.02,33.34,17.01,54.64,0,32.41-12.49,59.74-37.48,81.97-24.99,22.23-56.06,33.34-93.21,33.34-37.48,0-68.63-10.88-93.46-32.64-10.67-9.36-19.05-19.78-25.13-31.27-11.98-22.62-12.16-43.24-12.1-51.39,.21-29.52,12.79-52.89,34.19-84.94,19.83-29.71,48.22-68.35,87.34-111.14h108.51Zm-123.24,235.1c7.56,9.09,16.96,13.64,28.22,13.64,11.26,0,20.66-4.55,28.22-13.64,7.55-9.08,11.33-20.49,11.33-34.22,0-13.73-3.77-25.14-11.33-34.22-7.55-9.08-16.96-13.62-28.22-13.62s-20.67,4.55-28.22,13.64c-7.56,9.09-11.33,20.5-11.33,34.22,0,13.72,3.78,25.12,11.33,34.21Z"/>
          <path class="cls-3" d="M993.82,563.07l-76.9,111.8c10.02-3.9,20.78-5.54,31.51-4.8,2.26,.16,9.82,1.03,19.26,4.1,15.61,5.09,29.09,15.21,40.44,30.33,11.35,15.13,17.02,33.34,17.02,54.64,0,32.41-12.49,59.74-37.48,81.97-24.99,22.23-56.06,33.34-93.21,33.34-37.48,0-68.64-10.88-93.46-32.64-10.67-9.36-19.05-19.78-25.13-31.27-11.97-22.62-12.16-43.24-12.1-51.39,.21-29.52,12.79-52.89,34.19-84.94,19.84-29.71,48.24-68.35,87.37-111.14h108.49Zm-123.24,235.1c7.56,9.09,16.96,13.64,28.22,13.64,11.26,0,20.66-4.55,28.22-13.64,7.55-9.08,11.33-20.49,11.33-34.22s-3.78-25.14-11.33-34.22c-7.55-9.09-16.96-13.64-28.22-13.64-11.26,0-20.67,4.54-28.22,13.64-7.55,9.09-11.33,20.5-11.33,34.22,0,13.72,3.77,25.13,11.33,34.22h0Z"/>
          <path class="cls-5" d="M402.21,1187.18c-17.79-4.67-36.13-6.88-54.52-6.56-7.77,.11-15.53,.71-23.23,1.81-15.78,2.36-41.11,8.93-71.73,29.72,21.62-33.58,43.24-67.16,64.86-100.74l-75.25-33.01c20.48-14.26,46.01-29.3,76.18-41.48,26.84-10.9,54.96-18.35,83.68-22.15v172.41Z"/>
          <path d="M238.45,1226.96l73.09-113.51-77.87-34.16,6.68-4.65c24.6-17.11,50.47-31.2,76.88-41.87,27.11-11,55.51-18.52,84.52-22.37l4.26-.56v182.82l-4.67-1.22c-17.49-4.58-35.53-6.75-53.61-6.44-7.63,.11-15.24,.7-22.79,1.78-23.27,3.48-46.91,13.29-70.27,29.15l-16.22,11.01Zm12.64-149.42l72.59,31.84-57.63,89.51c19.28-10.94,38.69-17.92,57.91-20.79,7.84-1.12,15.74-1.74,23.66-1.85,17.08-.29,34.14,1.56,50.76,5.52v-162.04c-26.96,3.94-53.35,11.1-78.6,21.34-24.08,9.79-47.09,22.01-68.69,36.48h0Z"/>
          <path class="cls-5" d="M1098.56,1187.23c17.79-4.67,36.13-6.88,54.52-6.56,7.77,.11,15.53,.71,23.23,1.81,15.78,2.36,41.11,8.93,71.73,29.73l-64.86-100.74,75.27-33.01c-20.48-14.25-46.01-29.3-76.18-41.48-26.84-10.9-54.96-18.35-83.68-22.15l-.02,172.4Z"/>
          <path d="M1246.08,1215.98c-23.36-15.87-46.99-25.67-70.27-29.15-7.55-1.08-15.17-1.67-22.79-1.77-18.08-.31-36.12,1.86-53.61,6.44l-4.67,1.22v-182.81l4.26,.55c29,3.85,57.4,11.37,84.52,22.37,26.43,10.67,52.3,24.75,76.88,41.87l6.68,4.65-77.87,34.16,73.09,113.51-16.22-11.02Zm-65.11-174.87c-25.25-10.24-51.64-17.41-78.6-21.34v162.02c16.62-3.95,33.68-5.8,50.76-5.52,7.92,.11,15.82,.73,23.66,1.85,19.22,2.87,38.64,9.85,57.91,20.79l-57.62-89.49,72.59-31.84c-21.6-14.47-44.62-26.69-68.7-36.48Z"/>
          <path class="cls-5" d="M1137.92,1054.97c-255.42-55.92-519.92-55.92-775.34,0v146.59c255.42-55.92,519.92-55.92,775.34,0v-146.59Z"/>
          <path d="M1142.66,1208.34l-5.58-1.22c-254.86-55.8-518.77-55.8-773.62,0l-5.58,1.22v-158.06l3.87-.86c255.99-56.04,521.07-56.04,777.06,0l3.87,.86v158.06Zm-775.34-148.67v135.13c252.39-54.43,513.48-54.43,765.87,0v-135.13c-252.36-54.67-513.5-54.67-765.87,0h0Z"/>
          <path class="cls-4" d="M864.59,1124.73l-21.2-2.15,6.52-67.84,20.95,2.12c18.29,1.85,24.95,12.03,22.63,36.17-2.4,24.97-11.77,33.43-28.9,31.7Zm5.09-54.74l-7.98-.81-4.01,41.7,7.98,.8c8.65,.86,12.35-1.86,14.11-20.13,1.61-16.91-1.21-20.66-10.1-21.57Z"/>
          <path class="cls-4" d="M921.29,1132.38c-17.33-2.21-23.77-13.19-20.81-38.19,2.96-24.99,11.43-33.99,29.08-31.74,17.66,2.25,23.78,13.1,20.82,38.1-3.02,25.54-11.44,34.08-29.09,31.83Zm6.71-56.76c-8.37-1.07-11.73,2.44-13.85,20.31-2.12,17.95,.31,22.3,8.76,23.37,8.38,1.07,11.67-2.63,13.79-20.5,2.12-17.95-.24-22.09-8.7-23.18Zm-5.76-16.75c-3.4-.43-4.96-2.19-4.5-6.07,.43-3.52,2.38-5.19,5.78-4.76,3.48,.43,4.91,2.55,4.5,6.07-.43,3.61-2.3,5.19-5.78,4.76Zm15.33,1.95c-3.4-.43-4.96-2.19-4.5-6.07,.43-3.52,2.38-5.19,5.78-4.76,3.57,.46,4.92,2.55,4.5,6.07-.43,3.61-2.22,5.21-5.78,4.75h0Z"/>
          <path class="cls-4" d="M990.98,1141.19l-16.08-39.8-2.58-6.83-.18,.06-.95,7.3-5,35.44-11.49-1.77,9.52-67.46,11.17,1.72,17.18,44.47,.18-.06,.86-7.22,4.72-33.64,11.4,1.76-9.51,67.44-9.25-1.4Z"/>
          <path class="cls-4" d="M1051.05,1138.54l-2.39,12.67-38.03-6.81,10.88-67.23,36.88,6.6-1.84,12.95-24.2-4.33-2.23,13.8,20.33,3.64-1.92,11.83-20.33-3.64-2.58,15.96,25.43,4.55Z"/>
          <path class="cls-4" d="M1093.77,1130.91l7.81,30.93-14.92-3.01-5.11-27.53-7.54-1.52-4.64,25.54-12.89-2.61,12.17-67.01,20.19,4.09c14.35,2.91,20.19,10.48,17.57,24.95-1.74,9.57-6.26,15.24-12.63,16.17Zm-6.98-28.92l-7.46-1.51-3.31,18.22,7.3,1.48c5.66,1.14,8.28-.18,9.63-7.59,1.26-6.97-.5-9.45-6.16-10.6Z"/>
          <path class="cls-4" d="M408.11,1091.17l18.38,36.67,3.14,6.44,.25-.04,1.07-7.18,7.11-41.07,14.44-2.5,9.84,67.31-11.88,2.06-4.94-33.84-.9-7.3-.26-.05-1.13,7.3-6.21,36.23-8.66,1.49-16.14-32.27-3.15-6.54-.15,.12,1.14,7.25,4.93,33.74-11.39,1.97-9.83-67.33,14.35-2.48Z"/>
          <path class="cls-4" d="M502.92,1131.4l-19.88,2.84-1.46,13.77-13.74,1.97,10.88-70.3,15.89-2.27,27.49,64.82-14.49,2.07-4.69-12.89Zm-15.83-34.22l-2.62,24.3,14.17-2.02-8.31-22.73-2.28-7.01-.25,.03-.71,7.43Z"/>
          <path class="cls-4" d="M557.27,1109.12l15.97,27.09-15.12,1.78-12.46-24.68-7.64,.9,2.58,25.84-13.04,1.54-6.74-67.76,20.43-2.41c14.54-1.72,22.21,3.69,23.68,18.33,.96,9.67-1.81,16.49-7.66,19.36Zm-14.63-25.42l-7.56,.89,1.83,18.44,7.39-.86c5.73-.67,7.88-2.75,7.13-10.25-.7-7.06-3.07-8.88-8.8-8.21h0Z"/>
          <path class="cls-4" d="M611.45,1132.64l-16.26-27.68-5.58,.52,2.28,28.98-13.07,1.21-5.33-67.91,13.07-1.21,2.15,27.16,5.91-.55,11.35-28.42,14.82-1.37-14.03,33.86,20.27,33.96-15.58,1.45Z"/>
          <path class="cls-4" d="M671.15,1115.23l.43,12.89-38.52,2.67-3.98-68.02,37.37-2.58,1.01,13.04-24.51,1.72,.82,13.97,20.59-1.43,.7,11.97-20.59,1.43,.94,16.15,25.74-1.8Z"/>
          <path class="cls-4" d="M701.27,1071.82l2.21,54.74-13.27,.64-2.21-54.75-15.19,.73-.21-13.36,43.07-2.05,.79,13.32-15.19,.74Z"/>
          <path class="cls-4" d="M803.06,1123.83c-3.96-1.94-8.16-4.79-12.3-8.09-4.78,5.15-11,8.8-18.69,8.91-12.62,.19-17.74-8.83-17.86-18.73-.11-8.91,4.66-15.16,10.11-20.15-3.16-5.49-5.15-10.74-5.2-14.92-.11-9.18,4.3-16.52,16.67-16.7,9.45-.14,16.19,5.03,16.3,13.48,.1,8.27-6.59,14.17-13.04,19.83,3.14,4,6.6,7.75,10.33,11.21,1.72-3.66,2.96-7.53,3.7-11.51l10.44-.06c-.43,4.72-2.28,11.76-5.7,18.44,3.02,2.2,6.23,4.13,9.6,5.77l-4.35,12.52Zm-20.66-15.42c-4.2-4.09-8.1-8.47-11.7-13.1-2.39,2.86-3.94,5.88-3.9,9.24,.06,4.72,2.68,7.32,7.11,7.25,3.17-.05,6-1.36,8.48-3.4Zm-9.32-29.76c3.97-3.24,6.94-6.19,6.98-9.65-.03-3.01-1.89-4.42-4.48-4.39-3.09,.05-5.15,2.08-5.11,5.99,.03,2.18,.98,4.98,2.61,8.05h0Z"/>
        </g>
      </g>
    </g>
  </g>
</svg>