<?xml version="1.0" encoding="UTF-8"?>
<svg id="Layer_2" data-name="Layer 2" xmlns="http://www.w3.org/2000/svg" xmlns:xlink="http://www.w3.org/1999/xlink" viewBox="0 0 1500 1500">
  <defs>
    <style>
      .cls-1 {
        fill: none;
      }

      .cls-2 {
        fill: url(#linear-gradient);
      }

      .cls-3 {
        fill: #221f20;
      }

      .cls-4 {
        fill: url(#linear-gradient-8);
      }

      .cls-5 {
        fill: url(#linear-gradient-3);
      }

      .cls-6 {
        fill: url(#linear-gradient-4);
      }

      .cls-7 {
        fill: url(#linear-gradient-2);
      }

      .cls-8 {
        fill: url(#linear-gradient-6);
      }

      .cls-9 {
        fill: url(#linear-gradient-7);
      }

      .cls-10 {
        fill: url(#linear-gradient-5);
      }
    </style>
    <linearGradient id="linear-gradient" x1="681.85" y1="-7555.33" x2="818.13" y2="-7555.33" gradientTransform="translate(0 -6968) scale(1 -1)" gradientUnits="userSpaceOnUse">
      <stop offset="0" stop-color="#a78d5a"/>
      <stop offset=".5" stop-color="#efe3a0"/>
      <stop offset="1" stop-color="#aa8b4d"/>
    </linearGradient>
    <linearGradient id="linear-gradient-2" x1="681.84" y1="-7283.48" x2="818.12" y2="-7283.48" xlink:href="#linear-gradient"/>
    <linearGradient id="linear-gradient-3" x1="775.27" y1="-7555.32" x2="1004.89" y2="-7555.32" xlink:href="#linear-gradient"/>
    <linearGradient id="linear-gradient-4" x1="495.08" x2="724.7" xlink:href="#linear-gradient"/>
    <linearGradient id="linear-gradient-5" x1="588.46" y1="-7283.48" x2="724.74" y2="-7283.48" xlink:href="#linear-gradient"/>
    <linearGradient id="linear-gradient-6" x1="775.23" y1="-7283.48" x2="911.51" y2="-7283.48" xlink:href="#linear-gradient"/>
    <linearGradient id="linear-gradient-7" x1="868.61" y1="-7283.48" x2="1004.89" y2="-7283.48" xlink:href="#linear-gradient"/>
    <linearGradient id="linear-gradient-8" x1="495.08" y1="-7283.48" x2="631.36" y2="-7283.48" xlink:href="#linear-gradient"/>
  </defs>
  <g id="Layer_1-2" data-name="Layer 1">
    <g>
      <rect class="cls-1" width="1500" height="1500"/>
      <g id="Layer_1-2" data-name="Layer 1-2">
        <g>
          <path class="cls-3" d="M594.37,1242.27h-47.48c-1.77,0-3.54-.53-3.54-2.3,0-1.42,1.24-1.95,2.3-2.3l9.56-2.83c4.43-1.24,4.78-2.83,4.78-8.32v-82.56l-38.44,94.24c-1.06,2.48-1.77,4.96-4.6,4.96-2.48,0-3.19-1.95-4.25-4.43l-38.62-95.13v82.91c0,4.78,.18,7.08,4.78,8.32l10.98,2.83c1.06,.35,2.3,.89,2.3,2.3,0,1.77-1.77,2.3-3.54,2.3h-34.73c-1.77,0-3.54-.53-3.54-2.3,0-1.42,1.24-1.95,2.3-2.3l9.56-2.83c4.43-1.24,4.6-3.01,4.6-8.32v-81.14c0-8.85,.18-12.4-4.6-13.82l-9.56-2.83c-.89-.35-2.3-.71-2.3-2.3,0-1.77,1.77-2.3,3.54-2.3h34.37l35.97,89.29,35.97-89.29h34.19c1.77,0,3.36,.53,3.36,2.3,0,1.59-1.42,1.95-2.3,2.3l-9.39,2.83c-4.43,1.42-4.6,2.83-4.6,8.32v86.63c0,5.31,.18,6.91,4.6,8.32l9.39,2.83c1.06,.35,2.3,.89,2.3,2.3,0,1.77-1.59,2.3-3.36,2.3h0Z"/>
          <path class="cls-3" d="M666.82,1244.4c-35.43,0-56.16-24.62-56.16-61.12s20.73-61.3,56.16-61.3,56.16,24.8,56.16,61.3-20.73,61.12-56.16,61.12Zm0-116.57c-20.2,0-32.95,19.84-32.95,55.45s12.76,55.28,32.95,55.28,32.95-19.66,32.95-55.28-12.94-55.45-32.95-55.45Zm-18.43-20.02c-5.84,0-10.63-4.6-10.63-10.45s4.78-10.63,10.63-10.63,10.45,4.78,10.45,10.63-4.6,10.45-10.45,10.45Zm37.03,0c-5.84,0-10.63-4.6-10.63-10.45s4.78-10.63,10.63-10.63,10.45,4.78,10.45,10.63-4.6,10.45-10.45,10.45Z"/>
          <path class="cls-3" d="M791.17,1242.27h-53.5c-1.42,0-3.54-.35-3.54-2.3,0-1.24,1.24-1.95,2.3-2.3l9.56-2.83c4.78-1.42,4.6-3.9,4.6-8.32v-86.63c0-4.6,.18-6.91-4.6-8.32l-9.56-2.83c-1.06-.35-2.3-.89-2.3-2.3,0-1.95,2.13-2.3,3.54-2.3h52.43c16.12,0,38.27,5.84,38.27,25.69,0,16.3-9.56,23.03-24.27,26.93-1.24,.35-5.31,.89-5.31,2.66,0,1.24,1.24,1.95,2.3,2.13,1.77,.53,3.9,.71,5.84,1.06,6.2,1.24,12.58,2.83,17.89,6.55,7.44,5.31,11.34,13.47,11.34,22.5,0,24.45-25.15,30.64-45,30.64h0Zm-8.15-112.31c-4.6,0-10.99-1.06-10.99,5.31v43.05c19.31,0,33.84-4.78,33.84-26.75,0-14.53-8.68-21.61-22.85-21.61h0Zm-3.9,53.5c-2.3,0-4.78,.18-7.08,.35v44.47c0,9.21,4.07,8.68,12.23,8.68,17.01,0,28.7-8.5,28.7-26.22,0-21.08-14.88-27.28-33.84-27.28h0Z"/>
          <path class="cls-3" d="M941.04,1234.12c-2.13,6.55-3.54,10.8-6.2,10.8-.71,0-1.06-.18-1.59-.53-3.54-2.13-4.43-2.13-9.56-2.13h-72.28c-1.77,0-3.54-.53-3.54-2.3,0-1.42,1.42-1.95,2.3-2.3l9.56-2.83c4.43-1.24,4.6-3.01,4.6-8.32v-86.63c0-5.67-.35-7.08-4.6-8.32l-9.56-2.83c-.89-.35-2.3-.71-2.3-2.3,0-1.77,1.77-2.3,3.54-2.3h68.56c3.72,0,7.08,.18,9.56-1.77,.35-.35,.89-.53,1.42-.53,3.9,0,8.85,17.72,8.85,31.35,0,1.06-1.06,2.13-2.3,2.13s-2.3-1.06-2.83-1.95c-10.63-20.2-13.82-23.03-33.31-23.03h-7.97c-7.61,0-7.61,.53-7.61,7.44v40.57h16.3c8.32,0,11.16-1.06,13.64-7.97l2.13-6.02c.53-1.24,1.24-3.19,2.66-3.19,2.3,0,2.3,2.3,2.3,4.43v30.64c0,2.3-.18,4.96-2.3,4.96-1.95,0-2.48-1.95-3.19-3.9l-2.3-6.2c-2.48-6.55-5.14-6.55-12.58-6.55h-16.65v43.4c0,6.38,.18,8.15,6.55,8.15h8.15c19.31,0,27.63-3.19,38.44-21.26,2.13-3.36,3.36-6.55,5.31-6.55,1.42,0,2.13,1.24,2.13,2.48,0,4.78-1.95,12.94-5.31,23.38h0Z"/>
          <path class="cls-3" d="M1043.6,1236.42c-1.77,5.14-3.19,8.5-5.49,8.5-.89,0-1.42-.35-2.13-1.06-1.42-1.42-5.67-1.59-9.74-1.59h-69.09c-1.77,0-3.54-.53-3.54-2.3,0-1.42,1.24-1.95,2.3-2.3l9.56-2.83c4.43-1.24,4.6-3.01,4.6-8.32v-86.63c0-5.67-.35-7.08-4.6-8.32l-9.56-2.83c-1.06-.35-2.3-.89-2.3-2.3,0-1.77,1.77-2.3,3.54-2.3h47.48c1.77,0,3.36,.53,3.36,2.3,0,1.59-1.24,1.95-2.3,2.3l-9.39,2.83c-4.43,1.42-4.78,2.83-4.78,8.32v88.4c0,6.38,.35,7.79,6.73,7.79h6.02c19.13,0,25.33-4.6,33.31-14.71,6.2-7.97,6.73-13.11,9.92-13.11,1.06,0,2.13,.89,2.13,1.95,0,5.84-2.13,14.88-6.02,26.22h0Z"/>
        </g>
        <g>
          <path class="cls-3" d="M430.68,1007.54c-10.8,9.03-24.27,12.23-41.99,12.23h-51.19c-1.77,0-3.54-.53-3.54-2.3,0-1.42,1.42-1.95,2.3-2.3l9.56-2.83c4.43-1.24,4.6-3.01,4.6-8.32v-86.63c0-5.67-.35-7.08-4.6-8.32l-9.56-2.83c-.89-.35-2.3-.71-2.3-2.3,0-1.77,1.77-2.3,3.54-2.3h51.73c40.04,0,60.06,20.55,60.06,59.7,0,19.84-6.73,36.32-18.6,46.24v-.02Zm-43.76-100.1c-12.58,0-15.06,.18-15.06,6.55v90.7c0,7.79,.71,9.74,16.12,9.74,25.51,0,38.09-17.72,38.09-52.79s-13.47-54.21-39.15-54.21h0Z"/>
          <path class="cls-3" d="M513.05,1019.77h-47.3c-1.77,0-3.54-.53-3.54-2.3,0-1.42,1.42-1.95,2.3-2.3l9.56-2.83c4.43-1.24,4.6-3.19,4.6-8.32v-86.63c0-5.31-.18-7.08-4.6-8.32l-9.56-2.83c-.89-.35-2.3-.71-2.3-2.3,0-1.77,1.77-2.3,3.54-2.3h47.3c1.77,0,3.54,.53,3.54,2.3,0,1.59-1.42,1.95-2.3,2.3l-9.56,2.83c-5.31,1.59-4.6,3.72-4.6,13.82v75.65c0,9.92-.71,12.23,4.6,13.82l9.56,2.83c1.06,.35,2.3,.89,2.3,2.3,0,1.77-1.77,2.3-3.54,2.3v-.02Z"/>
          <path class="cls-3" d="M642.73,1019.77h-47.48c-1.77,0-3.36-.71-3.36-2.3,0-1.42,1.42-2.13,2.66-2.48l9.39-2.3c4.78-1.24,4.07-2.3,4.07-4.6,0-.89-.35-1.42-.71-2.3l-10.28-30.64h-36.85l-11.7,30.29c-.35,1.06-.89,1.59-.89,2.83,0,2.3,.18,3.54,3.36,4.43l9.03,2.3c1.42,.35,3.19,1.06,3.19,2.66s-1.59,2.13-3.54,2.13h-34.19c-1.95,0-3.54-.35-3.54-2.13,0-1.59,1.42-2.13,3.01-2.66l7.44-2.48c4.07-1.42,5.67-2.48,7.61-7.44l41.28-101.69c1.06-2.66,2.3-4.6,6.2-4.6,3.54,0,5.14,1.95,6.38,5.31l35.26,100.98c1.77,4.96,3.54,6.73,7.44,7.97l6.73,2.13c1.42,.35,2.83,.89,2.83,2.48,0,1.95-1.59,2.13-3.36,2.13h.03Zm-62.71-95.13l-17.36,44.29h32.42l-15.06-44.29h0Z"/>
          <path class="cls-3" d="M795.43,1019.77h-47.48c-1.77,0-3.54-.53-3.54-2.3,0-1.42,1.24-1.95,2.3-2.3l9.56-2.83c4.43-1.24,4.78-2.83,4.78-8.32v-82.56l-38.44,94.24c-1.06,2.48-1.77,4.96-4.6,4.96-2.48,0-3.19-1.95-4.25-4.43l-38.62-95.13v82.91c0,4.78,.18,7.08,4.78,8.32l10.98,2.83c1.06,.35,2.3,.89,2.3,2.3,0,1.77-1.77,2.3-3.54,2.3h-34.73c-1.77,0-3.54-.53-3.54-2.3,0-1.42,1.24-1.95,2.3-2.3l9.56-2.83c4.43-1.24,4.6-3.01,4.6-8.32v-81.14c0-8.85,.18-12.4-4.6-13.82l-9.56-2.83c-.89-.35-2.3-.71-2.3-2.3,0-1.77,1.77-2.3,3.54-2.3h34.37l35.97,89.29,35.97-89.29h34.19c1.77,0,3.36,.53,3.36,2.3,0,1.59-1.42,1.95-2.3,2.3l-9.39,2.83c-4.43,1.42-4.6,2.83-4.6,8.32v86.63c0,5.31,.18,6.91,4.6,8.32l9.39,2.83c1.06,.35,2.3,.89,2.3,2.3,0,1.77-1.59,2.3-3.36,2.3h0Z"/>
          <path class="cls-3" d="M924.92,1019.77h-47.48c-1.77,0-3.36-.71-3.36-2.3,0-1.42,1.42-2.13,2.66-2.48l9.39-2.3c4.78-1.24,4.07-2.3,4.07-4.6,0-.89-.35-1.42-.71-2.3l-10.27-30.64h-36.85l-11.7,30.29c-.35,1.06-.89,1.59-.89,2.83,0,2.3,.18,3.54,3.36,4.43l9.03,2.3c1.42,.35,3.19,1.06,3.19,2.66s-1.59,2.13-3.54,2.13h-34.19c-1.95,0-3.54-.35-3.54-2.13,0-1.59,1.42-2.13,3.01-2.66l7.44-2.48c4.07-1.42,5.67-2.48,7.61-7.44l41.28-101.69c1.06-2.66,2.3-4.6,6.2-4.6,3.54,0,5.14,1.95,6.38,5.31l35.26,100.98c1.77,4.96,3.54,6.73,7.44,7.97l6.73,2.13c1.42,.35,2.83,.89,2.83,2.48,0,1.95-1.59,2.13-3.36,2.13h.02Zm-62.71-95.13l-17.36,44.29h32.42l-15.06-44.29h0Z"/>
          <path class="cls-3" d="M1050.16,906.21l-9.39,2.83c-4.25,1.24-4.78,2.66-4.78,8.32v96.91c0,4.96-1.06,8.15-5.84,8.15-3.72,0-5.31-1.42-7.79-5.14l-65.02-94.77v81.49c0,4.78,.18,7.08,4.78,8.32l10.63,2.83c1.06,.35,2.3,.89,2.3,2.3,0,1.77-1.77,2.3-3.54,2.3h-34.37c-1.77,0-3.54-.53-3.54-2.3,0-1.42,1.42-1.95,2.3-2.3l9.56-2.83c4.43-1.24,4.6-2.83,4.6-8.32v-81.14c0-8.32,.18-12.4-4.6-13.82l-9.56-2.83c-.89-.35-2.3-.71-2.3-2.3,0-1.77,1.77-2.3,3.54-2.3h31l60.59,88.4v-72.63c0-5.14-.18-7.08-4.6-8.32l-10.63-2.83c-1.06-.35-2.3-.89-2.3-2.3,0-1.77,1.59-2.3,3.36-2.3h34.55c1.77,0,3.36,.53,3.36,2.3,0,1.59-1.24,1.95-2.3,2.3h-.02Z"/>
          <path class="cls-3" d="M1163.71,934.03c-1.42,0-2.66-1.59-3.19-2.83-7.26-14.35-11.87-23.56-29.58-23.56-4.43,0-6.91,0-6.91,4.96v91.41c0,5.49,.18,6.91,4.6,8.32l9.39,2.83c1.06,.35,2.3,.89,2.3,2.3,0,1.77-1.59,2.3-3.36,2.3h-47.48c-1.77,0-3.54-.53-3.54-2.3,0-1.42,1.24-1.95,2.3-2.3l9.56-2.83c4.43-1.24,4.78-3.19,4.78-8.32v-91.23c0-5.14-2.48-4.96-7.26-4.96-12.94,0-20.02,4.78-26.75,18.07-2.48,4.78-3.54,8.15-5.84,8.15-1.59,0-2.48-1.42-2.48-3.01,0-12.76,6.02-31.71,9.56-31.71,1.42,0,2.48,.71,2.83,1.06,1.59,1.06,5.67,1.42,10.27,1.42h60.41c4.6,0,8.68-.35,10.45-1.42,.35-.35,1.24-1.06,2.66-1.06,3.54,0,9.56,18.96,9.56,31.71,0,1.59-.71,3.01-2.3,3.01h0Z"/>
        </g>
        <g>
          <path class="cls-2" d="M749.99,767.75c-22.71-120.28-45.43-240.56-68.14-360.84h136.28c-22.71,120.28-45.43,240.56-68.14,360.84Z"/>
          <path class="cls-7" d="M749.98,254.14c22.71,40.89,45.43,81.78,68.14,122.67h-136.28c22.71-40.89,45.43-81.78,68.14-122.67Z"/>
          <path class="cls-5" d="M775.27,767.74c21.16-120.28,42.31-240.56,63.47-360.84h166.16c-76.54,120.28-153.08,240.56-229.63,360.84h0Z"/>
          <path class="cls-6" d="M724.7,767.75c-21.16-120.28-42.31-240.56-63.47-360.84h-166.16c76.54,120.28,153.08,240.56,229.63,360.84Z"/>
          <path class="cls-10" d="M656.6,376.81c-22.71-40.89-45.43-81.78-68.14-122.67h136.28c-22.71,40.89-45.43,81.78-68.14,122.67Z"/>
          <path class="cls-8" d="M843.37,376.81c-22.71-40.89-45.43-81.78-68.14-122.67h136.28c-22.71,40.89-45.43,81.78-68.14,122.67Z"/>
          <path class="cls-9" d="M936.75,254.14c22.71,40.89,45.43,81.78,68.14,122.67h-136.28c22.71-40.89,45.43-81.78,68.14-122.67Z"/>
          <path class="cls-4" d="M563.22,254.14c22.71,40.89,45.43,81.78,68.14,122.67h-136.28c22.71-40.89,45.43-81.78,68.14-122.67Z"/>
        </g>
      </g>
    </g>
  </g>
</svg>