<?xml version="1.0" encoding="UTF-8"?>
<svg id="Layer_2" data-name="Layer 2" xmlns="http://www.w3.org/2000/svg" xmlns:xlink="http://www.w3.org/1999/xlink" viewBox="0 0 1500 1500">
  <defs>
    <style>
      .cls-1 {
        fill: none;
      }

      .cls-2 {
        fill: url(#linear-gradient);
      }

      .cls-3 {
        fill: #fff;
      }

      .cls-4 {
        fill: #1d1d1b;
      }
    </style>
    <linearGradient id="linear-gradient" x1="359.65" y1="-7987.36" x2="1138.05" y2="-7305.03" gradientTransform="translate(0 -7058.5) scale(1 -1)" gradientUnits="userSpaceOnUse">
      <stop offset="0" stop-color="#284a5d"/>
      <stop offset="1" stop-color="#366fae"/>
    </linearGradient>
  </defs>
  <g id="Layer_1-2" data-name="Layer 1">
    <g>
      <rect class="cls-1" width="1500" height="1500"/>
      <g id="Layer_2-2" data-name="Layer 2">
        <g id="Layer_1-2" data-name="Layer 1-2">
          <path class="cls-3" d="M1145.51,642.75c-6.73,57.22-25.23,98.62-46,129-115.71,169.19-439.04,196.55-805,72-10-57.33-20-114.67-30-172,27.48-16,69.56-43.84,111-88,67.59-72.03,86.46-137.39,105-167,41.44-66.19,181.42-113.76,635-8l30,234Z"/>
          <path class="cls-2" d="M270.22,388.2s-53.22-112.64-53.64-131.95c-.42-19.31,4.65-30.75,27-26.46,22.35,4.29,91.42,20.08,121.46,15.02,30.04-5.07,230.29-55.07,280.65-59.36,50.36-4.29,168.42-10.73,218.84-7.51,50.42,3.22,85.11,5.36,126.82-8.58,41.72-13.95,83.44-32.72,93.69-32.72s13.95,15.55,12.34,41.72c-1.61,26.16-18.77,94.94-16.09,117.47,2.68,22.53,34.33,104.06,34.33,112.64s-90.11,152.87-133.56,181.83c-43.45,28.96-66.51,39.16-122.83,38.08-56.32-1.07-99.23-1.07-103.52,5.36s-6.97,20.92,29.8,28.43c36.77,7.51,60.07,7.51,48.81,16.09-11.26,8.58-21.46,15.32-50.18,22.29-28.73,6.97-91.72,27.06-98.69,30.28-6.97,3.22-20.92,14.48-17.88,20.92,3.04,6.44-.77,13.23,27.83,11.44,28.61-1.79,97.26-25.03,100.12-25.75s4.29,2.86,.36,5.96-99.41,39.69-111.57,47.2c-12.16,7.51-24.32,16.45-24.67,25.03-.36,8.58,9.65,22.65,35.76,13.11s123.72-52.8,125.51-53.16,5.96,1.73,2.09,5.48c-3.87,3.75-104,63.89-106.86,65.56-2.86,1.67-5.36,16.57,.77,20.02s24.44,4.83,53.1-11.56c28.67-16.39,68.66-34.57,71.1-35.76s5.96,2.5-3.52,9.18c-9.48,6.67-61.68,42.61-64.9,46.07-3.22,3.46-7.81,20.5,16.03,15.67,23.84-4.83,112.64-48.27,123.37-55.25,10.73-6.97,86.36-60.61,112.64-82.6,26.28-21.99,115.62-106.74,120.39-109.18s5.6-4.05,5.6,4.59-.77,163.83-2.92,177.24c-4.41,23.4-1.41,47.58,8.58,69.19,13.95,29.8,36.47,87.97,38.62,102.98,2.15,15.02,1.61,21.46-22.53,21.99-24.14,.54-76.7-13.41-105.13-13.41s-98.69,20.38-162.52,34.33c-63.83,13.95-144.82,27.89-202.63,28.96s-221.52,.54-242.44,2.68-63.95,24.38-92.38,33.02c-28.43,8.64-47.2,13.41-51.49,5.96-4.29-7.45,4.83-90.11,8.58-113.24,3.75-23.12,5.96-29.8,1.61-51.49s-32.72-98.16-31.11-102.45,49.35-24.14,79.38-38.08c30.04-13.95,148.58-79.38,184.75-101.32,45.71-27.97,88.1-61.04,126.35-98.57,45.06-44.34,65.97-62.94,65.56-74.5-.42-11.56-3.75-15.26-11.5-13.41-7.75,1.85-37.31,28.96-51.49,38.38s-20.38,14.72-20.38,10.19,26.52-31.88,43.15-47.68c16.63-15.79,37.31-37.31,39.69-47.2,2.38-9.89-3.46-17.16-8.82-17.88-5.36-.72-42.31,30.39-63.47,48.1-21.16,17.7-37.01,31.94-41.72,31.94s25.45-38.08,45.59-59.6,55.49-58.76,52.03-71.1c-3.46-12.34-12.34-16.63-22.53-10.43-10.19,6.2-93.69,101.79-99.89,102.75-6.2,.95-7.69-6.91,13.17-36.71,20.86-29.8,47.68-58.17,43.69-71.04-3.99-12.87-9.89-16.09-17.88-11.56-7.99,4.53-35.76,38.38-46.66,51.25s-43.51,63.53-51.02,70.21c-7.51,6.67-15.85,16.93-17.88,7.27-2.03-9.65,6.97-57.39,5.96-67.35-1.01-9.95-6.32-18.77-14.54-16.63s-19.01,23.84-23.06,36.47c-4.05,12.63-27.71,79.68-34.15,90.11-6.44,10.43-25.21,44.52-50.06,61.15-24.85,16.63-86.36,43.74-120.39,53.64l-34.09,9.65s-7.87-119.31-6.79-159.54c1.07-40.23,4.29-91.18,6.97-101.91,2.68-10.73,5.3-21.99,5.3-21.99Z"/>
          <path class="cls-4" d="M198.7,1338.18v-95.36h41.12c23.36,0,34.98,9.36,34.98,28.01s-12.93,28.31-38.86,28.31h-9.6v39.04h-27.65Zm27.65-47.68h5.96c10.07,0,15.08-6.67,15.08-19.97s-5.01-18.71-15.08-18.71h-5.96v38.68Z"/>
          <path class="cls-4" d="M353.95,1335.68c-5.81,2.3-11.99,3.51-18.24,3.58-8.76,0-14.12-2.68-16.21-8.16-4.28,5.74-11.15,8.94-18.3,8.52-14.84,0-22.29-6.85-22.29-20.68,0-10.43,6.85-17.88,20.44-22.05,12.58-4.05,18.53-8.58,18.53-14.12,.74-5.21-2.88-10.04-8.09-10.79-.89-.13-1.8-.13-2.69,0-8.28,0-12.4,3.46-12.4,10.49,.18,2.96,.82,5.88,1.91,8.64l-12.63-2.44c-.29-1.97-.45-3.96-.48-5.96,0-11.2,10.19-16.81,30.57-16.81s29.08,5.22,29.08,15.67v42.73c0,4.41,1.43,6.56,4.23,6.56,1.4-.17,2.75-.66,3.93-1.43l2.62,6.26Zm-36.06-39.81c-1.58,1.79-3.43,3.32-5.48,4.53-5.39,3.22-8.47,9.24-7.93,15.5,0,9.3,1.85,13.95,5.48,13.95,5.3,0,7.93-4.59,7.93-13.83v-20.14Z"/>
          <path class="cls-4" d="M409.26,1293.3h-17.46c.42-2.02,.95-4.01,1.61-5.96,.61-1.64,.95-3.37,1.01-5.13,0-2.98-1.07-4.47-3.22-4.47-1.67,0-3.22,1.97-4.71,5.96-1.49,3.98-2.24,8.2-2.21,12.46v42.2h-25.51v-70.62h4.95c6.89-.1,13.77-.74,20.56-1.91v11.62c3.97-7.95,9.04-11.82,15.2-11.62,8.22,0,12.28,4.53,12.28,13.53-.03,2.76-.43,5.51-1.19,8.16-.24,1.43-.72,3.28-1.31,5.78Z"/>
          <path class="cls-4" d="M490.73,1335.68c-5.81,2.3-11.99,3.51-18.24,3.58-8.76,0-14.12-2.68-16.21-8.16-4.28,5.74-11.15,8.94-18.3,8.52-14.84,0-22.29-6.85-22.29-20.68,0-10.43,6.79-17.88,20.38-22.05,12.52-3.97,18.77-8.68,18.77-14.12,.74-5.21-2.88-10.04-8.09-10.79-.89-.13-1.8-.13-2.69,0-8.28,0-12.46,3.46-12.46,10.49,.17,2.97,.84,5.89,1.97,8.64l-12.63-2.44c-.29-1.97-.45-3.96-.48-5.96,0-11.2,10.19-16.81,30.57-16.81s29.08,5.22,29.08,15.67v42.73c0,4.41,1.43,6.56,4.23,6.56,1.4-.17,2.75-.66,3.93-1.43l2.44,6.26Zm-35.76-39.81c-1.6,1.79-3.47,3.32-5.54,4.53-5.36,3.25-8.41,9.25-7.87,15.5,0,9.3,1.85,13.95,5.42,13.95,5.36,0,7.99-4.59,7.99-13.83v-20.14Z"/>
          <path class="cls-4" d="M558.67,1241.39v96.79h-25.51v-5.96c-4.22,5.09-10.56,7.93-17.16,7.69-15.89,0-23.84-12.16-23.84-36.47,0-25.03,8.4-37.49,25.15-37.49,6.45-.16,12.48,3.16,15.79,8.7v-31.71c8.54-.08,17.08-.6,25.57-1.55Zm-33.08,34.69c-4.23,0-6.38,3.93-6.38,11.92l-.54,14.96,.3,13.59c0,8.7,2.44,13.05,7.27,13.05s7.03-4.23,7.03-12.81l.36-17.16-.54-11.92c-.66-7.75-3.22-11.62-7.51-11.62Z"/>
          <path class="cls-4" d="M572.85,1338.18v-70.33c8.52-.05,17.02-.69,25.45-1.91v72.23h-25.45Zm12.87-97.74c7.93,0,11.92,3.1,11.92,9.24s-3.99,9.24-11.92,9.24-11.92-3.1-11.92-9.24,4.05-9.24,11.92-9.24Z"/>
          <path class="cls-4" d="M667.67,1285.85l-12.34,2.15c0-10.49-4.89-15.79-14.66-15.79-5.96,0-9.06,2.5-9.06,7.45,0,3.64,5.19,7.51,15.55,11.92,15.89,6.44,23.84,14.64,23.84,24.61,0,15.89-10.07,23.84-30.22,23.84-21.34,0-32-7.95-32-23.84l13.11-2.62c-.08,1.43-.08,2.86,0,4.29,.03,4.17,1.93,8.11,5.19,10.73,3.28,2.92,7.52,4.54,11.92,4.53,5.96,0,9.24-2.62,9.24-7.81,0-3.52-5.01-7.39-14.9-11.62-14.98-6.44-22.45-14.68-22.41-24.73-.06-6.55,3.16-12.7,8.58-16.39,6.47-4.46,14.2-6.7,22.05-6.38,16.03-.18,24.55,6.44,26.1,19.67Z"/>
          <path class="cls-4" d="M731.38,1312.38l10.25,3.04c-1.07,16.21-10.67,24.38-28.79,24.38-23.4,0-35.12-11.72-35.16-35.16-.42-10.15,2.91-20.1,9.36-27.95,5.88-7.06,14.66-11.05,23.84-10.85,20.34,0,30.51,13.13,30.51,39.39h-37.07c0,18.4,4.69,27.61,14.07,27.65,8.76,0,13.11-5.24,13.11-15.67,0-1.37-.06-2.98-.12-4.83Zm-27.12-15.08h15.26c0-16.39-2.5-24.55-7.45-24.55s-6.97,5.96-7.51,18.24l-.3,6.32Z"/>
          <path class="cls-4" d="M796.4,1338.18v-95.36h42.37c21.85,0,32.78,7.81,32.78,23.42,0,11.09-6.6,18.18-19.79,21.28,15.91,3.16,23.84,11.62,23.84,25.27,0,16.93-10.73,25.39-32.06,25.39h-47.14Zm27.65-53.64h8.52c7.87,0,11.92-5.96,11.92-17.46,0-10.73-4.17-16.09-12.52-16.09h-7.81l-.12,33.55Zm0,45.95h7.87c10.37,0,15.5-5.96,15.5-17.88,0-13.59-5.3-20.32-15.97-20.32h-7.39v38.2Z"/>
          <path class="cls-4" d="M935.5,1312.38l10.25,3.04c-1.01,16.21-10.61,24.38-28.73,24.38-23.48,0-35.22-11.72-35.22-35.16-.42-10.15,2.91-20.1,9.36-27.95,5.9-7.04,14.66-11.02,23.84-10.85,20.34,0,30.51,13.13,30.51,39.39h-37.01c0,18.4,4.67,27.61,14.01,27.65,8.76,0,13.17-5.24,13.17-15.67,0-1.35-.06-2.96-.18-4.83Zm-27.06-15.08h15.2c0-16.39-2.44-24.55-7.39-24.55s-6.97,5.96-7.57,18.24l-.24,6.32Z"/>
          <path class="cls-4" d="M1019.66,1241.39v96.79h-25.45v-5.96c-4.23,5.11-10.6,7.95-17.22,7.69-15.89,0-23.84-12.16-23.84-36.47s8.4-37.49,25.15-37.49c6.45-.16,12.48,3.16,15.79,8.7v-31.71c8.54-.08,17.08-.6,25.57-1.55Zm-33.02,34.69c-4.29,0-6.44,3.97-6.44,11.92l-.48,14.96v13.59c0,8.7,2.38,13.05,7.27,13.05s7.03-4.23,7.03-12.81l.36-17.16-.6-11.92c-.42-7.75-2.92-11.62-7.15-11.62Z"/>
          <path class="cls-4" d="M1096.72,1241.39v96.79h-25.51v-5.96c-4.22,5.09-10.56,7.93-17.16,7.69-15.89,0-23.84-12.16-23.84-36.47s8.4-37.49,25.15-37.49c6.45-.16,12.48,3.16,15.79,8.7v-31.71c8.54-.08,17.08-.6,25.57-1.55Zm-33.02,34.69c-4.29,0-6.44,3.97-6.44,11.92l-.48,14.96v13.59c0,8.7,2.44,13.05,7.27,13.05s7.09-4.23,7.09-12.81v-17.16l-.54-11.92c-.18-7.75-2.68-11.62-6.91-11.62Z"/>
          <path class="cls-4" d="M1110.9,1338.18v-70.33c8.54-.05,17.06-.69,25.51-1.91v72.23h-25.51Zm12.93-97.74c7.87,0,11.92,3.1,11.92,9.24s-3.99,9.24-11.92,9.24-11.92-3.1-11.92-9.24,3.99-9.24,11.92-9.24Z"/>
          <path class="cls-4" d="M1217.34,1338.18h-25.51v-51.67c0-5.3-1.49-7.93-4.41-7.93s-5.54,2.09-7.75,5.96c-2.29,4.58-3.41,9.66-3.28,14.78v38.56h-25.51v-70.27c8.53,0,17.05-.57,25.51-1.73v13.17c5.01-8.02,13.73-12.95,23.18-13.11,11.92,0,17.88,5.96,17.88,17.88l-.12,54.35Z"/>
          <path class="cls-4" d="M1277.42,1268.45c11.92,5.09,17.88,12.48,17.88,22.17-.11,6.58-3.46,12.69-8.94,16.33-6.23,4.61-13.83,7-21.57,6.79-4.44-.1-8.86-.54-13.23-1.31-3.22,1.91-4.83,3.75-4.83,5.6s1.97,3.87,5.96,3.87h5.96c7.87-.54,13.59-.77,17.16-.77,17.01,0,25.49,6.44,25.45,19.31,0,15.5-14.07,23.3-42.14,23.3-20.86,0-31.35-4.41-31.35-13.23,0-5.07,4.23-8.52,12.69-10.31-9-2.38-13.53-6.32-13.53-11.92,0-6.85,5.36-12.87,16.15-17.88-8.55-2.56-14.35-10.5-14.18-19.43-.16-6.99,3.03-13.63,8.58-17.88,6.03-4.86,13.6-7.38,21.34-7.09,3.81,.07,7.61,.37,11.38,.89-.21-1.26-.33-2.54-.36-3.81,0-9.24,4.83-13.83,14.42-13.83,7.69,0,11.56,3.22,11.56,9.65,0,4.95-2.32,7.45-6.91,7.45-1.92-.11-3.79-.64-5.48-1.55-.91-.52-1.89-.88-2.92-1.07-1.91-.24-3.1,1.37-3.1,4.71Zm-16.39,74.32c-11.92,0-17.88,2.32-17.88,6.91s5.96,6.85,17.22,6.85c13.35,0,20.02-2.56,20.02-7.69,.18-4.05-6.32-6.08-19.25-6.08h-.12Zm.66-69.97c-4.71,0-7.09,5.96-7.09,17.88,0,10.85,2.44,16.27,7.39,16.27s6.79-4.83,6.79-14.48c.12-13.17-2.26-19.67-6.97-19.67h-.12Z"/>
        </g>
      </g>
    </g>
  </g>
</svg>