<?xml version="1.0" encoding="UTF-8"?>
<svg id="Layer_2" data-name="Layer 2" xmlns="http://www.w3.org/2000/svg" xmlns:xlink="http://www.w3.org/1999/xlink" viewBox="0 0 1500 1500">
  <defs>
    <style>
      .cls-1 {
        fill: none;
      }

      .cls-2 {
        fill: url(#linear-gradient);
      }

      .cls-3 {
        fill: #010101;
      }

      .cls-4 {
        fill: #fff;
      }

      .cls-5 {
        fill: #3e3e3e;
      }
    </style>
    <linearGradient id="linear-gradient" x1="235.75" y1="-7597.81" x2="1269.45" y2="-7597.81" gradientTransform="translate(0 -6994) scale(1 -1)" gradientUnits="userSpaceOnUse">
      <stop offset="0" stop-color="#b3b3b3"/>
      <stop offset=".91" stop-color="#676767"/>
    </linearGradient>
  </defs>
  <g id="Layer_1-2" data-name="Layer 1">
    <g>
      <rect class="cls-1" width="1500" height="1500"/>
      <g id="Layer_1-2" data-name="Layer 1-2">
        <g>
          <rect class="cls-1" x="135.32" y="134.84" width="1230.16" height="1230.16"/>
          <g>
            <rect class="cls-5" x="223.76" y="1147.98" width="1045.68" height="86.79"/>
            <g>
              <g>
                <path class="cls-5" d="M266.28,1116.59v-43.27c0-1.18-.27-2.38-.84-3.28l-41.67-72.23h20.11c10.5,19.03,26.7,48.37,32.22,59.28,5.13-10.68,21.98-40.45,32.78-59.28h18.74l-42.85,72.37c-.42,.76-.75,1.37-.75,3.19v43.22h-17.73Z"/>
                <path class="cls-5" d="M358.35,997.8v71.35c0,27.07,14.7,34.5,29.45,34.5,17.21,0,29.14-8.15,29.14-34.5v-71.35h17.72v70.45c0,38.93-21.78,49.86-47.21,49.86s-46.93-11.74-46.93-48.87v-71.44h17.82Z"/>
                <path class="cls-5" d="M482.43,1065.17v51.42h-17.41v-118.78h47.52c24.69,0,37.88,13.43,37.88,31.93,0,15.53-8.83,24.75-19.69,27.97,8.97,2.52,17.49,9.55,17.49,30.29v5.24c0,8.15-.3,18.27,1.62,23.35h-17.03c-2.15-5.13-2.1-14.32-2.1-25.74v-2.38c0-16.17-4.49-23.29-25.4-23.29h-22.89Zm0-14.61h25.02c17.38,0,24.88-6.54,24.88-19.25s-7.87-18.89-23.33-18.89h-26.58v38.14Z"/>
                <path class="cls-5" d="M601.22,1012.73h-37.94v-14.92h93.62v14.92h-37.96v103.86h-17.72v-103.86h0Z"/>
                <path class="cls-3" d="M730.34,1075.2l-15.22,41.39h-9.41l43.96-119.72h10.95l45.84,119.72h-10.09l-15.56-41.39h-50.46Zm47.38-8.55c-13.34-35.57-20.18-52.68-22.58-60.72h-.17c-2.91,9.06-10.6,30.27-21.38,60.72h44.13Z"/>
                <path class="cls-3" d="M827.67,996.87h39.68c32.84,0,55.59,22.92,55.59,58.83s-22.24,60.88-55.76,60.88h-39.51v-119.72h0Zm9.24,111.17h28.91c31.64,0,47.21-22.23,47.21-51.82,0-26.34-14.02-50.8-47.21-50.8h-28.91v102.61Z"/>
                <path class="cls-3" d="M979.4,1116.59l-44.47-119.72h9.92l23.26,62.6c6.67,18.13,14.2,38.14,16.76,48.23h.34c2.56-8.89,10.78-29.93,17.45-47.54l24.12-63.28h9.75l-46.19,119.72h-10.95Z"/>
                <path class="cls-3" d="M1066.12,996.87v119.72h-9.24v-119.72h9.24Z"/>
                <path class="cls-3" d="M1171.66,1057.76h-61.07v50.28h66.88l-1.37,8.55h-74.75v-119.72h73.38v8.55h-64.15v43.78h61.07v8.55Z"/>
                <path class="cls-3" d="M1202.96,1084.44c3.59,15.9,14.2,25.31,33.87,25.31,21.9,0,30.28-10.94,30.28-23.94s-5.99-21.89-32.33-28.39c-25.32-6.33-36.27-14.54-36.27-31.81,0-15.74,11.46-30.44,37.12-30.44s37.46,16.08,39,30.61h-9.58c-2.74-12.83-11.12-22.06-29.93-22.06-17.28,0-26.68,8.04-26.68,21.38s7.87,18.3,29.93,23.77c33.7,8.38,38.66,21.89,38.66,36.26,0,17.62-12.83,32.84-40.54,32.84-29.93,0-40.88-17.44-43.1-33.52h9.59Z"/>
              </g>
              <g>
                <path class="cls-4" d="M292.04,1171.41h5.93v16.46h19.92v-16.46h5.93v39.94h-5.93v-18.45h-19.92v18.45h-5.93v-39.94Z"/>
                <path class="cls-4" d="M343.12,1211.34v-14.55c0-.4-.09-.8-.28-1.1l-14.01-24.29h6.76c3.53,6.4,8.98,16.26,10.84,19.93,1.73-3.59,7.39-13.6,11.02-19.93h6.3l-14.41,24.33c-.14,.26-.25,.46-.25,1.07v14.53h-5.96Z"/>
                <path class="cls-4" d="M368.02,1171.41h15.43c7.91,0,13.31,4.42,13.31,11.76,0,7.95-5.79,12.05-13.61,12.05h-9.17v16.12h-5.96v-39.94Zm5.96,18.9h8.75c5.19,0,7.95-2.46,7.95-6.99s-3.25-6.99-7.75-6.99h-8.95v13.98h0Z"/>
                <path class="cls-4" d="M439.8,1191.17c0,11.01-6.26,20.75-18.91,20.75-11.91,0-18.47-9.09-18.47-20.54s6.81-20.54,18.95-20.54c11.33,0,18.44,8.39,18.44,20.33h0Zm-31.2,.04c0,8.47,4.23,15.72,12.53,15.72,8.97,0,12.48-7.41,12.48-15.68s-3.98-15.43-12.5-15.43-12.52,7-12.52,15.38h0Z"/>
                <path class="cls-4" d="M455.11,1176.43h-12.76v-5.02h31.48v5.02h-12.76v34.92h-5.96v-34.92Z"/>
                <path class="cls-4" d="M479.48,1171.41h5.93v16.46h19.92v-16.46h5.93v39.94h-5.93v-18.45h-19.92v18.45h-5.93v-39.94Z"/>
                <path class="cls-4" d="M547.38,1192.95h-19.72v13.38h21.68l-.75,5.02h-26.73v-39.94h26.45v5.02h-20.65v11.5h19.72v5.02h0Z"/>
                <path class="cls-4" d="M556.37,1171.41h5.88v19.26c2.91-3.08,12.69-12.92,18.75-19.26h7.3l-16.96,16.79,17.76,23.14h-7.17l-14.74-19.3-4.94,4.51v14.79h-5.88v-39.94h0Z"/>
                <path class="cls-4" d="M619.57,1192.95h-19.72v13.38h21.68l-.75,5.02h-26.73v-39.94h26.45v5.02h-20.65v11.5h19.72v5.02h0Z"/>
                <path class="cls-4" d="M628.55,1211.34v-39.94h7.71c5.59,9.27,17.44,28.43,19.6,32.78h.08c-.4-4.95-.36-11.37-.36-17.89v-14.88h5.54v39.94h-7.26c-5.09-8.5-17.56-29.35-19.97-33.85h-.08c.29,4.35,.31,11.39,.31,18.59v15.26h-5.57Z"/>
                <path class="cls-4" d="M721.21,1186.13l-10.29,14.87c-4.73,6.85-8.08,10.92-15.7,10.92s-11.67-5.44-11.67-10.65,3.08-8.86,10.86-12.83c4.93-2.57,8.03-4.52,8.03-8.25,0-2.64-1.57-5.14-4.77-5.14-2.94,0-4.93,1.95-4.93,5.31,0,2.48,1.89,4.64,4.74,7.34l24.13,23.64h-7.55l-21.35-21c-3.06-2.96-5.27-5.79-5.27-9.66,0-5.3,3.75-9.84,10.27-9.84,6.14,0,9.92,4.28,9.92,9.28,0,4.59-3.07,7.41-10.22,11.25-6.57,3.29-8,6.11-8,9.29,0,3.36,2.6,6.34,6.31,6.34,4.42,0,6.8-1.9,11.79-9.29l7.76-11.57h5.95Z"/>
                <path class="cls-4" d="M753.28,1211.34l-14.46-39.94h6.37l6.83,19.63c2.01,5.81,3.94,11.49,4.83,15.22h.11c.84-3.36,2.97-9.28,5.03-15.05l7.12-19.81h6.1l-14.93,39.94h-7Z"/>
                <path class="cls-4" d="M806.54,1192.95h-19.72v13.38h21.68l-.75,5.02h-26.73v-39.94h26.45v5.02h-20.65v11.5h19.72v5.02h0Z"/>
                <path class="cls-4" d="M821.38,1194.06v17.29h-5.86v-39.94h15.98c8.3,0,12.73,4.52,12.73,10.74,0,5.22-2.97,8.32-6.62,9.4,3.02,.85,5.88,3.21,5.88,10.18v1.76c0,2.74-.1,6.14,.54,7.85h-5.72c-.72-1.72-.7-4.82-.7-8.66v-.8c0-5.44-1.51-7.83-8.54-7.83h-7.7Zm0-4.92h8.41c5.85,0,8.37-2.2,8.37-6.47s-2.65-6.35-7.84-6.35h-8.94v12.82h0Z"/>
                <path class="cls-4" d="M850.11,1206.85l23.87-30.42h-22.69v-5.02h29.51v4.9l-23.4,30.02h24.23l-.81,5.02h-30.71v-4.49h0Z"/>
                <path class="cls-4" d="M913.63,1192.95h-19.72v13.38h21.68l-.75,5.02h-26.73v-39.94h26.45v5.02h-20.65v11.5h19.72v5.02h0Z"/>
                <path class="cls-4" d="M922.62,1171.41h5.88v19.26c2.91-3.08,12.69-12.92,18.75-19.26h7.3l-16.96,16.79,17.76,23.14h-7.17l-14.74-19.3-4.94,4.51v14.79h-5.88v-39.94Z"/>
                <path class="cls-4" d="M985.81,1192.95h-19.72v13.38h21.68l-.75,5.02h-26.73v-39.94h26.45v5.02h-20.65v11.5h19.72v5.02h0Z"/>
                <path class="cls-4" d="M1000.65,1194.06v17.29h-5.86v-39.94h15.98c8.3,0,12.73,4.52,12.73,10.74,0,5.22-2.97,8.32-6.62,9.4,3.02,.85,5.88,3.21,5.88,10.18v1.76c0,2.74-.1,6.14,.54,7.85h-5.72c-.72-1.72-.7-4.82-.7-8.66v-.8c0-5.44-1.51-7.83-8.54-7.83h-7.7Zm0-4.92h8.41c5.85,0,8.37-2.2,8.37-6.47s-2.65-6.35-7.84-6.35h-8.94v12.82h0Z"/>
                <path class="cls-4" d="M1038.16,1171.41v39.94h-5.93v-39.94h5.93Z"/>
                <path class="cls-4" d="M1048.8,1211.34v-39.94h7.71c5.59,9.27,17.44,28.43,19.6,32.78h.08c-.4-4.95-.36-11.37-.36-17.89v-14.88h5.54v39.94h-7.26c-5.09-8.5-17.56-29.35-19.97-33.85h-.08c.29,4.35,.31,11.39,.31,18.59v15.26h-5.57Z"/>
                <path class="cls-4" d="M1124.54,1211.34h-4.5c-.28-.85-.45-2.55-.53-5.13-1.83,2.86-5.36,5.7-12.27,5.7-11.53,0-17.72-8.74-17.72-20.11,0-11.97,6.64-20.97,18.8-20.97,9.47,0,15.35,5.17,16.46,12.25h-5.93c-1.25-4.12-4.26-7.39-10.65-7.39-9.07,0-12.5,7.3-12.5,15.83,0,7.97,3.51,15.48,12.33,15.48s10.71-5.8,10.71-11.94v-.41h-10.78v-5.02h16.56v21.71h0Z"/>
                <path class="cls-4" d="M1159.61,1192.95h-19.72v13.38h21.68l-.75,5.02h-26.73v-39.94h26.45v5.02h-20.65v11.5h19.72v5.02h0Z"/>
                <path class="cls-4" d="M1168.6,1211.34v-39.94h7.71c5.59,9.27,17.44,28.43,19.6,32.78h.08c-.4-4.95-.36-11.37-.36-17.89v-14.88h5.54v39.94h-7.26c-5.09-8.5-17.56-29.35-19.97-33.85h-.08c.29,4.35,.31,11.39,.31,18.59v15.26h-5.57Z"/>
              </g>
              <g>
                <path class="cls-5" d="M614.65,306.25h-116.79v253.35c39.06-51.81,78.12-103.62,117.18-155.43-.13-32.64-.27-65.29-.4-97.93h0Z"/>
                <path class="cls-2" d="M1269.45,942.55c-103.41-135.58-206.81-271.16-310.22-406.73,.04-.07,.09-.14,.14-.22-.13-.04-.27-.08-.4-.13-68.05-89.22-136.09-178.43-204.14-267.64l-1.86-2.77-1.86,2.77c-171.79,224.91-343.58,449.81-515.36,674.72h109.12c83.42-109.22,166.85-218.44,250.28-327.65,33.14,53.15,66.28,106.31,99.42,159.46,3.27,4.68,4.06,9.1,4.06,14.01l-.05,154.06,105.29,.03,.05-155.51c0-5,.62-7.81,1.52-9.86,.74-1.68,1.64-3.04,2.46-4.07,33.87-53.09,67.74-106.18,101.6-159.27,83.61,109.6,167.21,219.19,250.82,328.8h109.12Zm-512.88-235.46c-21.4-41.79-61.92-114.82-96.97-176.63,31.01-40.63,62.02-81.26,93.04-121.88,32.59,42.63,65.18,85.26,97.78,127.89-34.57,59.57-75.83,131.77-93.85,170.63h0Z"/>
              </g>
            </g>
          </g>
        </g>
      </g>
    </g>
  </g>
</svg>